<svg width="100" height="76" viewBox="0 0 100 76" fill="none" xmlns="http://www.w3.org/2000/svg">
<path d="M49.7325 99.6098C22.4098 99.6098 0.187378 77.3769 0.187378 50.0646C0.187378 22.7524 22.4202 0.519531 49.7325 0.519531C77.0447 0.519531 99.2776 22.7524 99.2776 50.0646C99.2776 77.3769 77.0447 99.6098 49.7325 99.6098ZM49.7325 3.81905C24.2313 3.81905 3.4869 24.5635 3.4869 50.0646C3.4869 75.5658 24.2313 96.3102 49.7325 96.3102C75.2336 96.3102 95.9781 75.5658 95.9781 50.0646C95.9781 24.5635 75.2336 3.81905 49.7325 3.81905Z" fill="#7DDACF"/>
<path d="M82.0647 14.7116L66.7264 30.0498L69.7441 33.0674L85.0823 17.7292L82.0647 14.7116Z" fill="#7DDACF"/>
<path d="M29.2638 67.5101L13.9255 82.8484L16.9431 85.866L32.2814 70.5277L29.2638 67.5101Z" fill="#7DDACF"/>
<path d="M70.1932 67.5178L67.1757 70.5354L82.5139 85.8737L85.5315 82.8561L70.1932 67.5178Z" fill="#7DDACF"/>
<path d="M16.9393 14.2568L13.9218 17.2744L29.2527 32.6053L32.2703 29.5878L16.9393 14.2568Z" fill="#7DDACF"/>
<path d="M61.8166 51.3973C62.8158 50.398 62.8158 48.7847 61.8166 47.7959L59.6932 45.6829C58.694 44.6837 57.0807 44.6837 56.0919 45.6829L54.9469 46.8279L53.625 45.5059C52.6258 44.5067 51.0124 44.5067 50.0236 45.5059L48.8787 46.6613L47.5568 45.329C46.5575 44.3298 44.9442 44.3298 43.9554 45.329L36.9295 52.3548C36.8775 52.4069 36.8775 52.4902 36.9295 52.5526C37.8663 53.4894 39.3964 53.4894 40.3436 52.5526L44.8713 48.0249C45.3605 47.5357 46.1516 47.5357 46.6408 48.0249L46.9739 48.358C47.0363 48.4204 47.0363 48.514 46.9739 48.5765L43.1956 52.3548C43.1435 52.4069 43.1435 52.4902 43.1956 52.5526C44.1323 53.4894 45.6624 53.4894 46.6096 52.5526L50.95 48.2122C51.4392 47.723 52.2303 47.723 52.7195 48.2122L53.0525 48.5453C53.1045 48.5974 53.1045 48.6806 53.0525 48.7431L49.4095 52.3861C49.3574 52.4381 49.3574 52.5214 49.4095 52.5839C50.3463 53.5206 51.8764 53.5206 52.8235 52.5839L57.0182 48.3892C57.5074 47.8999 58.2985 47.8999 58.7877 48.3892L59.5059 49.1074C59.7869 49.3884 59.7869 49.8568 59.5059 50.1378L59.3914 50.2523C59.1104 50.5333 58.642 50.5333 58.3609 50.2523L57.4346 49.326C57.3825 49.2739 57.2992 49.2739 57.2368 49.326L55.6339 50.9289C55.5818 50.9809 55.5818 51.0642 55.6339 51.1266L57.0806 52.5734C58.0799 53.5727 59.6932 53.5727 60.682 52.5734L61.827 51.4285L61.8166 51.3973Z" fill="#7DDACF"/>
<path d="M49.7336 12.0732C28.7498 12.0732 11.7421 29.081 11.7421 50.0648C11.7421 71.0486 28.7498 88.0563 49.7336 88.0563C70.7174 88.0563 87.7251 71.0486 87.7251 50.0648C87.7251 29.081 70.7174 12.0732 49.7336 12.0732ZM51.2845 23.8038C57.384 24.1577 62.9214 26.5933 67.2097 30.4029L61.7243 35.8882C58.862 33.463 55.2502 31.8913 51.2845 31.5582V23.8038ZM48.1931 23.8038V31.5582C44.2274 31.8809 40.6157 33.463 37.7533 35.8882L32.2679 30.4029C36.5563 26.5933 42.0937 24.1577 48.1931 23.8038ZM30.0821 32.5887L35.5674 38.0741C33.1422 40.9364 31.5706 44.5482 31.2375 48.5139H23.483C23.8369 42.4144 26.2726 36.877 30.0821 32.5887ZM23.483 51.6053H31.2375C31.5602 55.571 33.1422 59.1827 35.5674 62.0451L30.0821 67.5305C26.2726 63.2421 23.8369 57.7047 23.483 51.6053ZM48.1931 76.3154C42.0937 75.9615 36.5563 73.5258 32.2679 69.7163L37.7533 64.231C40.6157 66.6562 44.2274 68.2278 48.1931 68.5609V76.3154ZM33.7668 50.0543C33.7668 41.2382 40.9175 34.0875 49.7336 34.0875C58.5497 34.0875 65.7005 41.2382 65.7005 50.0543C65.7005 58.8705 58.5497 66.0212 49.7336 66.0212C40.9175 66.0212 33.7668 58.8705 33.7668 50.0543ZM51.2845 76.3154V68.5609C55.2502 68.2383 58.862 66.6562 61.7243 64.231L67.2097 69.7163C62.9214 73.5258 57.384 75.9615 51.2845 76.3154ZM69.3955 67.5305L63.9102 62.0451C66.3354 59.1827 67.9071 55.571 68.2402 51.6053H75.9946C75.6407 57.7047 73.2051 63.2421 69.3955 67.5305ZM68.2402 48.5139C67.9175 44.5482 66.3354 40.9364 63.9102 38.0741L69.3955 32.5887C73.2051 36.877 75.6407 42.4144 75.9946 48.5139H68.2402Z" fill="#7DDACF"/>
</svg>
