<svg width="100" height="146" viewBox="0 0 100 146" fill="none" xmlns="http://www.w3.org/2000/svg">
<g id="World">
<g id="Group">
<path id="Vector" d="M0.546753 49.6812C0.546753 22.3586 22.7796 0.125732 50.1023 0.125732C77.425 0.125732 99.6578 22.3586 99.6578 49.6812C99.6578 77.0039 77.425 99.2367 50.1023 99.2367C22.7796 99.2367 0.546753 77.0039 0.546753 49.6812ZM96.0877 49.6812C96.0877 24.3258 75.4577 3.69589 50.1023 3.69589C24.7469 3.69589 4.11697 24.3258 4.11697 49.6812C4.11697 75.0367 24.7469 95.6666 50.1023 95.6666C75.4577 95.6666 96.0877 75.0367 96.0877 49.6812Z" fill="#478BF9"/>
<g id="Group_2">
<path id="Vector_2" d="M98.1434 48.4844H76.4414V52.7623H98.1434V48.4844Z" fill="#478BF9"/>
<path id="Vector_3" d="M23.4207 48.4844H1.71863V52.7623H23.4207V48.4844Z" fill="#478BF9"/>
<path id="Vector_4" d="M52.4107 77.4619H48.1328V99.164H52.4107V77.4619Z" fill="#478BF9"/>
<path id="Vector_5" d="M52.4107 2.08252H48.1328V23.7845H52.4107V2.08252Z" fill="#478BF9"/>
<path id="Vector_6" d="M75.7858 23.4724C60.9431 8.62965 36.8678 8.62965 22.0147 23.4724C7.17201 38.3151 7.17201 62.3903 22.0147 77.2434C36.8574 92.0861 60.9326 92.0861 75.7858 77.2434C90.6285 62.4007 90.6285 38.3255 75.7858 23.4724ZM56.2487 26.6887C60.5787 28.0314 64.4611 30.5398 67.4796 33.9539L68.0625 34.6096L67.2091 34.8074C64.9504 35.3382 62.5356 35.7754 60.0375 36.098L59.5899 36.1605L59.465 35.7234C59.0487 34.2974 58.5595 32.9234 57.9974 31.6535C57.3 30.061 56.5194 28.6663 55.6659 27.4901L54.7291 26.2098L56.2487 26.6782V26.6887ZM38.8767 49.1713L38.8976 48.63C39.0017 45.3409 39.3659 42.1975 39.9905 39.3039L40.0842 38.8459L40.5525 38.8876C46.0274 39.3664 51.8771 39.3455 57.3209 38.8355L57.7892 38.7939L57.8933 39.2519C58.5283 42.1767 58.8925 45.3305 58.9862 48.63V49.1713H38.8871H38.8767ZM58.9862 51.5861V52.1274C58.8717 55.4269 58.5074 58.5807 57.8725 61.5055L57.7684 61.9635L57.3 61.9219C51.8563 61.4118 46.0067 61.4014 40.5317 61.8698L40.0633 61.9114L39.9696 61.4535C39.3451 58.5599 38.9808 55.4269 38.8767 52.1274L38.8559 51.5861H58.9654H58.9862ZM48.9315 25.7831C51.9604 25.7831 55.0413 29.6239 56.9669 35.817L57.1647 36.4415L56.509 36.4936C53.9484 36.7122 51.3047 36.8267 48.6505 36.8267C46.1836 36.8267 43.7271 36.733 41.3331 36.5352L40.6774 36.4832L40.8752 35.8482C42.8008 29.6343 45.8922 25.7727 48.9315 25.7727V25.7831ZM30.2792 34.0683C33.3185 30.6023 37.2322 28.0522 41.6142 26.6991L43.1443 26.2307L42.1971 27.5213C41.3436 28.6871 40.5525 30.0923 39.8656 31.6744C39.3139 32.9234 38.8143 34.3181 38.3771 35.817L38.2522 36.2438L37.8047 36.1918C35.2858 35.8795 32.8501 35.4631 30.5602 34.9323L29.6963 34.7345L30.2792 34.0683ZM24.2006 48.6092C24.492 44.5499 25.7931 40.5946 27.9685 37.1493L28.1767 36.8267L28.5514 36.9203C31.216 37.5969 34.0887 38.1382 37.1072 38.5233L37.6694 38.5961L37.5548 39.1582C36.9303 42.1767 36.5764 45.3721 36.4828 48.6613V49.1713H24.1693L24.211 48.6092H24.2006ZM28.1767 63.9307L27.9685 63.6081C25.7931 60.1732 24.492 56.2075 24.2006 52.1481L24.1589 51.5861H36.4619V52.0961C36.566 55.3852 36.9303 58.5911 37.5445 61.5992L37.6589 62.1612L37.0968 62.2341C34.0887 62.6192 31.2056 63.1605 28.541 63.8371L28.1663 63.9307H28.1767ZM41.6142 74.0687C37.2322 72.7156 33.3185 70.1655 30.2792 66.6995L29.6963 66.0333L30.5602 65.8355C32.8501 65.3151 35.2858 64.8883 37.8047 64.5761L38.2522 64.524L38.3771 64.9508C38.8143 66.4497 39.3139 67.8444 39.8656 69.0934C40.5629 70.686 41.3436 72.0807 42.1971 73.2569L43.1443 74.5475L41.6142 74.0791V74.0687ZM48.9315 74.9743C45.8922 74.9743 42.8008 71.1127 40.8752 64.8987L40.6774 64.2638L41.3331 64.2118C46.2981 63.8163 51.5857 63.8266 56.509 64.2534L57.1647 64.3054L56.9669 64.93C55.0309 71.1127 51.95 74.9639 48.9315 74.9639V74.9743ZM67.4796 66.8035C64.4611 70.2176 60.5683 72.726 56.2487 74.0687L54.7291 74.5371L55.6659 73.2569C56.5194 72.0911 57.3 70.686 57.9974 69.0934C58.549 67.8132 59.0487 66.4496 59.465 65.0236L59.5899 64.5865L60.0375 64.6489C62.5356 64.9716 64.9504 65.4087 67.2091 65.9396L68.0625 66.1478L67.4796 66.8035ZM73.652 52.1481C73.3606 56.2491 72.0387 60.2565 69.8112 63.733L69.603 64.0556L69.2283 63.962C66.595 63.2646 63.7325 62.7129 60.7349 62.307L60.1728 62.2341L60.2873 61.6825C60.9118 58.664 61.2761 55.4477 61.3698 52.1065V51.5965H73.6832L73.6416 52.1586L73.652 52.1481ZM61.3906 49.1713V48.6613C61.2865 45.3201 60.9222 42.0934 60.2977 39.0853L60.1832 38.5337L60.7453 38.4608C63.743 38.0549 66.5949 37.5032 69.2387 36.8058L69.6135 36.7122L69.8216 37.0348C72.049 40.5113 73.3813 44.5083 73.6624 48.6197L73.704 49.1817H61.401L61.3906 49.1713Z" fill="#478BF9"/>
</g>
</g>
<g id="Group_3">
<path id="Vector_7" d="M0.484375 171.577V51.9816C0.484375 50.9927 1.28586 50.2017 2.26427 50.2017C3.24269 50.2017 4.04417 51.0031 4.04417 51.9816V171.577C4.04417 172.566 3.24269 173.357 2.26427 173.357C1.28586 173.357 0.484375 172.555 0.484375 171.577Z" fill="#478BF9"/>
</g>
<g id="Group_4">
<path id="Vector_8" d="M96.0352 171.847V52.2521C96.0352 51.2632 96.8366 50.4722 97.815 50.4722C98.7934 50.4722 99.5949 51.2737 99.5949 52.2521V171.847C99.5949 172.836 98.7934 173.627 97.815 173.627C96.8366 173.627 96.0352 172.826 96.0352 171.847Z" fill="#478BF9"/>
</g>
</g>
</svg>
